<?xml version="1.0" encoding="utf-8"?>
<!-- Generator: Adobe Illustrator 19.0.0, SVG Export Plug-In . SVG Version: 6.00 Build 0)  -->
<svg version="1.1" id="Layer_1" xmlns="http://www.w3.org/2000/svg" xmlns:xlink="http://www.w3.org/1999/xlink" x="0px" y="0px"
	 viewBox="-223 25 512 512" style="enable-background:new -223 25 512 512;" xml:space="preserve">
<style type="text/css">
	.st0{fill:#E6186D;}
</style>
<g>
	<g>
		<path class="st0" d="M278.4,409L97.5,76.5c-29.1-48.9-99.9-49-129,0L-212.4,409c-29.7,50,6.3,113.3,64.5,113.3h361.7
			C272,522.2,308.1,459,278.4,409z M33,462.2c-16.5,0-30-13.5-30-30s13.5-30,30-30s30,13.5,30,30S49.5,462.2,33,462.2z M63,342.2
			c0,16.5-13.5,30-30,30s-30-13.5-30-30v-150c0-16.5,13.5-30,30-30s30,13.5,30,30V342.2z"/>
	</g>
</g>
</svg>
