<svg xmlns="http://www.w3.org/2000/svg" viewBox="0 0 208.24 47.52"><defs><style>.cls-1,.cls-2{fill:#11785d;}.cls-2{font-size:16.54px;font-family:Helvetica-Light, Helvetica;font-weight:300;}</style></defs><g id="Layer_2" data-name="Layer 2"><g id="Layer_1-2" data-name="Layer 1"><polygon class="cls-1" points="173.04 30.25 165.05 43.25 180.03 43.56 180.3 43.56 180.33 41.72 180.06 41.71 168.53 41.47 174.63 31.19 173.04 30.25"/><path class="cls-1" d="M170.62,23.93l8.41.36,5.45,9.51-4.11,6.28-9.75-16.15m-3.36-2,13.05,21.62,6.34-9.69-6.53-11.37Z"/><polygon class="cls-1" points="200.25 30.25 208.24 43.25 193.26 43.56 192.99 43.56 192.96 41.72 193.22 41.71 204.76 41.47 198.66 31.19 200.25 30.25"/><path class="cls-1" d="M202.67,23.93l-9.75,16.15-4.11-6.28,5.45-9.51,8.41-.36m-9.5-1.44-6.52,11.37L193,43.55,206,21.93Z"/><path class="cls-1" d="M188.5,21.36V18.89A11.13,11.13,0,0,1,199.62,7.77h2.47V5.16h-2.47a13.73,13.73,0,0,0-13.73,13.73v2.47Z"/><path class="cls-1" d="M7.57,12.79v-.9a.19.19,0,0,1,.21-.21H9.13a.19.19,0,0,1,.21.21V19a1.22,1.22,0,0,0,.24.87,1,1,0,0,0,.76.24h.92a.74.74,0,0,1,.84.84c0,.35-.06.57-.2.66a1.14,1.14,0,0,1-.64.14H10a2.86,2.86,0,0,1-1.61-.39,2,2,0,0,1-.76-1.29,2.86,2.86,0,0,1-1,.57,4.3,4.3,0,0,1-1.28.19,4.7,4.7,0,0,1-1.52-.24,3.18,3.18,0,0,1-1.21-.7,3.3,3.3,0,0,1-.81-1.19A4.63,4.63,0,0,1,1.54,17a5.17,5.17,0,0,1,.33-2,3.73,3.73,0,0,1,.88-1.29A3.26,3.26,0,0,1,4,13a5,5,0,0,1,1.5-.22ZM5.39,19.18a1.91,1.91,0,0,0,1.69-.7,3.36,3.36,0,0,0,.49-2v-2.1H5.52a2.29,2.29,0,0,0-1.6.56,2.59,2.59,0,0,0-.62,2,2.29,2.29,0,0,0,.54,1.65A2.08,2.08,0,0,0,5.39,19.18ZM3.57,10.25A.19.19,0,0,1,3.36,10V8.51a.19.19,0,0,1,.21-.21H5a.19.19,0,0,1,.21.21V10a.19.19,0,0,1-.21.21Zm2.56,0A.19.19,0,0,1,5.92,10V8.51a.19.19,0,0,1,.21-.21H7.55a.19.19,0,0,1,.21.21V10a.19.19,0,0,1-.21.21Zm5.28,11.49a1.08,1.08,0,0,1-.63-.15.68.68,0,0,1-.21-.59,1,1,0,0,1,.2-.71.94.94,0,0,1,.64-.19h1.43a1,1,0,0,0,.76-.24,1.22,1.22,0,0,0,.24-.87V13.37a.19.19,0,0,1,.21-.21h1.34a.19.19,0,0,1,.21.21v5.31a1.21,1.21,0,0,0,.52,1.07,2.42,2.42,0,0,0,1.37.35h.25a1,1,0,0,1,.63.18.75.75,0,0,1,.21.6.9.9,0,0,1-.2.7,1,1,0,0,1-.64.16h-.46a2.41,2.41,0,0,1-1.17-.27,1.88,1.88,0,0,1-.78-.82,2.19,2.19,0,0,1-2.18,1.09Zm1.07,3.9a.19.19,0,0,1-.21-.21V23.9a.19.19,0,0,1,.21-.21H13.9a.19.19,0,0,1,.21.21v1.53a.19.19,0,0,1-.21.21Zm2.56,0a.19.19,0,0,1-.21-.21V23.9a.19.19,0,0,1,.21-.21h1.42a.19.19,0,0,1,.21.21v1.53a.19.19,0,0,1-.21.21Zm2.85-3.9a1.08,1.08,0,0,1-.63-.15.68.68,0,0,1-.21-.59,1,1,0,0,1,.2-.71.92.92,0,0,1,.64-.19h1.32a1,1,0,0,0,.76-.24,1.22,1.22,0,0,0,.24-.87V13.37a.19.19,0,0,1,.21-.21h1.34a.19.19,0,0,1,.21.21V19.1a3,3,0,0,1-.56,2,2.45,2.45,0,0,1-1.89.64Zm2.49-10.65a.19.19,0,0,1-.21-.21V9.35a.19.19,0,0,1,.21-.21h1.43a.19.19,0,0,1,.21.21v1.53a.19.19,0,0,1-.21.21ZM26,25.91a.19.19,0,0,1-.21-.21V24.48a.19.19,0,0,1,.21-.21h2.51a3.21,3.21,0,0,0,.78-.09,1.65,1.65,0,0,0,.62-.31,1.53,1.53,0,0,0,.41-.61,3,3,0,0,0,.14-1v-.54H28.18a6.14,6.14,0,0,1-1.67-.22,3.3,3.3,0,0,1-1.27-.71,3.19,3.19,0,0,1-.79-1.32,6.43,6.43,0,0,1-.27-2,6.24,6.24,0,0,1,.31-2.08,3.93,3.93,0,0,1,.87-1.47,3.61,3.61,0,0,1,1.29-.86,4.29,4.29,0,0,1,1.57-.28,3.86,3.86,0,0,1,2.91,1.08,4.87,4.87,0,0,1,1.05,3.49v4.88a4.63,4.63,0,0,1-.26,1.68,2.91,2.91,0,0,1-.73,1.13A3,3,0,0,1,30,25.7a4.9,4.9,0,0,1-1.48.21Zm2.26-11.49a2,2,0,0,0-1.68.84,3.74,3.74,0,0,0-.6,2.22,2.83,2.83,0,0,0,.59,2.06,2.53,2.53,0,0,0,1.78.56h2.11V17.36a3.88,3.88,0,0,0-.51-2.16A1.87,1.87,0,0,0,28.22,14.42Zm5.53,11.49a.19.19,0,0,1-.21-.21V24.48a.19.19,0,0,1,.21-.21h.49c1.13,0,1.69-.59,1.69-1.78V13.37a.19.19,0,0,1,.21-.21h1.35c.14,0,.2.07.2.21v5.31a1.24,1.24,0,0,0,.52,1.07,2.42,2.42,0,0,0,1.37.35h.23a1,1,0,0,1,.63.18.75.75,0,0,1,.21.6.9.9,0,0,1-.2.7,1,1,0,0,1-.64.16h-.44a2.16,2.16,0,0,1-1.68-.67v1.38A3.57,3.57,0,0,1,36.84,25a3.38,3.38,0,0,1-2.52.88ZM40,21.74a1.08,1.08,0,0,1-.63-.15.68.68,0,0,1-.21-.59,1,1,0,0,1,.2-.71A.94.94,0,0,1,40,20.1h1.42a1.06,1.06,0,0,0,.77-.24,1.22,1.22,0,0,0,.24-.87V13.37a.19.19,0,0,1,.21-.21h1.34a.19.19,0,0,1,.21.21v5.31a1.23,1.23,0,0,0,.51,1.07A2.47,2.47,0,0,0,46,20.1h.25a1,1,0,0,1,.63.18.75.75,0,0,1,.21.6.9.9,0,0,1-.2.7,1,1,0,0,1-.64.16h-.46a2.48,2.48,0,0,1-1.18-.27,1.91,1.91,0,0,1-.77-.82,2.19,2.19,0,0,1-2.18,1.09Zm1.28-10.65a.19.19,0,0,1-.21-.21V9.35a.19.19,0,0,1,.21-.21h1.42a.19.19,0,0,1,.21.21v1.53a.19.19,0,0,1-.21.21Zm2.56,0a.19.19,0,0,1-.21-.21V9.35a.19.19,0,0,1,.21-.21h1.42a.19.19,0,0,1,.21.21v1.53a.19.19,0,0,1-.21.21ZM50,13.16h1.87a3.74,3.74,0,0,1,2.59.91,3.61,3.61,0,0,1,1,2.83v1.25c0,.12,0,.23,0,.34s0,.22,0,.33a1.14,1.14,0,0,0,.56,1,2.49,2.49,0,0,0,1.33.31h.23a1,1,0,0,1,.63.18.75.75,0,0,1,.2.6c0,.36-.06.6-.19.7a1,1,0,0,1-.64.16h-.44a2.6,2.6,0,0,1-1.27-.31,1.64,1.64,0,0,1-.81-.89,2,2,0,0,1-1,.94,4.36,4.36,0,0,1-1.62.26H46.29a.74.74,0,0,1-.84-.84c0-.35.07-.57.2-.66a1.17,1.17,0,0,1,.64-.14H51.8a4.07,4.07,0,0,0,1-.09,1,1,0,0,0,.54-.32,1.07,1.07,0,0,0,.25-.57,5.62,5.62,0,0,0,.06-.9v-1.3c0-1.41-.79-2.12-2.38-2.12H47.84a.19.19,0,0,1-.21-.21V13.42a.37.37,0,0,1,.07-.2,1,1,0,0,1,.12-.14l4.59-5.41a.2.2,0,0,1,.27-.06l1,.84a.21.21,0,0,1,.08.29Zm7.57,8.58a1.08,1.08,0,0,1-.63-.15.68.68,0,0,1-.21-.59,1,1,0,0,1,.2-.71.92.92,0,0,1,.64-.19h1.32a1,1,0,0,0,.76-.24,1.22,1.22,0,0,0,.24-.87V7.69a.19.19,0,0,1,.21-.21h1.34a.19.19,0,0,1,.21.21V19.1a3,3,0,0,1-.56,2,2.45,2.45,0,0,1-1.89.64ZM70.06,20.1h2.45a1.06,1.06,0,0,0,.77-.24,1.22,1.22,0,0,0,.24-.87V7.69a.19.19,0,0,1,.21-.21h1.34a.19.19,0,0,1,.21.21V19.1a3,3,0,0,1-.57,2,2.42,2.42,0,0,1-1.88.64H64.17a.19.19,0,0,1-.21-.21V20.31a.19.19,0,0,1,.21-.21H68.3V10.65a.19.19,0,0,1,.21-.21h1.34a.19.19,0,0,1,.21.21Zm-2.24,6.48a2.08,2.08,0,0,1-.28-.58,2.28,2.28,0,0,1-.1-.72,2.52,2.52,0,0,1,.1-.7,1.75,1.75,0,0,1,.36-.67,2,2,0,0,1,.66-.51,2.35,2.35,0,0,1,1-.19,2.5,2.5,0,0,1,1,.18,1.61,1.61,0,0,1,.68.55q.06.15,0,.21l-.44.35c-.1.09-.17.1-.23.05a1.51,1.51,0,0,0-.44-.35,1.16,1.16,0,0,0-.56-.14,1,1,0,0,0-.87.36,1.32,1.32,0,0,0-.29.84,1.38,1.38,0,0,0,.24.81,2,2,0,0,0,.48.51h2.15c.09,0,.13.05.13.15v.58c0,.1,0,.15-.13.15H67c-.08,0-.13-.05-.13-.15v-.58c0-.1,0-.15.13-.15Zm12.15-5a.19.19,0,0,1-.21.21H78.42a.19.19,0,0,1-.21-.21V7.69a.19.19,0,0,1,.21-.21h1.34a.19.19,0,0,1,.21.21Zm21.3.21V23a2.88,2.88,0,0,1-.21,1.08,2.5,2.5,0,0,1-.68.95,3.72,3.72,0,0,1-1.24.66,5.91,5.91,0,0,1-1.85.25H92.38a5.18,5.18,0,0,1-3.73-1.23,4.44,4.44,0,0,1-1.28-3.36,7,7,0,0,1,.41-2.38,8.18,8.18,0,0,1,1-1.92c.06-.1.16-.1.3,0l1.15.63a.17.17,0,0,1,.06.27,8.89,8.89,0,0,0-.72,1.45,4.76,4.76,0,0,0-.34,1.8,3.4,3.4,0,0,0,.28,1.46,2.48,2.48,0,0,0,.76.95,3.19,3.19,0,0,0,1.1.52,5.6,5.6,0,0,0,1.31.15h4.64A2.94,2.94,0,0,0,99,23.85a1.12,1.12,0,0,0,.49-.9V21.74H97.27a5.43,5.43,0,0,1-1.67-.24,3.2,3.2,0,0,1-1.27-.76,3.32,3.32,0,0,1-.8-1.35,6.7,6.7,0,0,1-.27-2,6.08,6.08,0,0,1,.32-2.07,3.78,3.78,0,0,1,.86-1.42,3.31,3.31,0,0,1,1.27-.82,4.48,4.48,0,0,1,1.56-.26,3.93,3.93,0,0,1,2.93,1.08,4.83,4.83,0,0,1,1.07,3.49V20.1h1.47a1,1,0,0,1,.63.18.79.79,0,0,1,.21.6.9.9,0,0,1-.2.7,1,1,0,0,1-.64.16Zm-6-10.65a.19.19,0,0,1-.21-.21V9.35a.19.19,0,0,1,.21-.21h1.43a.19.19,0,0,1,.21.21v1.53a.19.19,0,0,1-.21.21Zm2,3.33a2,2,0,0,0-1.66.78A3.49,3.49,0,0,0,95,17.36a3,3,0,0,0,.6,2.12,2.33,2.33,0,0,0,1.77.62h2.12V17.36A3.71,3.71,0,0,0,99,15.2,1.9,1.9,0,0,0,97.27,14.42Zm.52-3.33a.19.19,0,0,1-.21-.21V9.35a.19.19,0,0,1,.21-.21h1.43a.19.19,0,0,1,.21.21v1.53a.19.19,0,0,1-.21.21Zm4.8,10.65a1.08,1.08,0,0,1-.63-.15.68.68,0,0,1-.21-.59,1,1,0,0,1,.2-.71.94.94,0,0,1,.64-.19H104a1,1,0,0,0,.76-.24A1.22,1.22,0,0,0,105,19V13.37a.19.19,0,0,1,.21-.21h1.34a.19.19,0,0,1,.21.21V19.1a3,3,0,0,1-.56,2,2.45,2.45,0,0,1-1.89.64Zm.9,3.9a.19.19,0,0,1-.21-.21V23.9a.19.19,0,0,1,.21-.21h1.43a.19.19,0,0,1,.21.21v1.53a.19.19,0,0,1-.21.21Zm2.56,0a.19.19,0,0,1-.21-.21V23.9a.19.19,0,0,1,.21-.21h1.42a.19.19,0,0,1,.21.21v1.53a.19.19,0,0,1-.21.21Zm11.4-7.49a7,7,0,0,1-.18,1.74,2.64,2.64,0,0,1-.54,1.1,2,2,0,0,1-.93.58,5,5,0,0,1-1.37.17h-4.65a.19.19,0,0,1-.21-.21V20.31a.19.19,0,0,1,.21-.21h4a4.07,4.07,0,0,0,1-.09,1,1,0,0,0,.54-.32,1.07,1.07,0,0,0,.25-.57,4.56,4.56,0,0,0,.07-.9V16.54c0-1.41-.8-2.12-2.39-2.12h-2.44a.19.19,0,0,1-.21-.21V13a.19.19,0,0,1,.21-.21h3.09a3.77,3.77,0,0,1,2.6.9,3.61,3.61,0,0,1,1,2.83Zm2.62-10.46a.19.19,0,0,1,.21-.21h1.34a.19.19,0,0,1,.21.21V19a1.22,1.22,0,0,0,.24.87,1.06,1.06,0,0,0,.77.24h.92a.74.74,0,0,1,.84.84c0,.35-.07.57-.2.66a1.17,1.17,0,0,1-.64.14h-1.24a2.41,2.41,0,0,1-1.88-.64,3,3,0,0,1-.57-2Zm3.69,14a1.08,1.08,0,0,1-.63-.15.68.68,0,0,1-.21-.59,1,1,0,0,1,.2-.71.94.94,0,0,1,.64-.19h1.32a1.08,1.08,0,0,0,.77-.24,1.22,1.22,0,0,0,.24-.87V13.37a.19.19,0,0,1,.21-.21h1.34a.19.19,0,0,1,.21.21v.72a12.47,12.47,0,0,1,2.28-.93,9,9,0,0,1,2.58-.37,6.3,6.3,0,0,1,2.43.4,3.82,3.82,0,0,1,1.54,1.08,3.78,3.78,0,0,1,.81,1.58,7.81,7.81,0,0,1,.23,1.91c0,.18,0,.35,0,.51s0,.3,0,.41a1.23,1.23,0,0,0,.51,1.07,2.43,2.43,0,0,0,1.38.35h.23a.9.9,0,0,1,.62.18.75.75,0,0,1,.21.6c0,.36-.06.6-.19.7a1,1,0,0,1-.64.16h-.44a2.48,2.48,0,0,1-1.31-.34,1.74,1.74,0,0,1-.81-1,2.06,2.06,0,0,1-1,1,4.09,4.09,0,0,1-1.69.3h-7a.85.85,0,0,1-.71-.27,3.1,3.1,0,0,1-1.41.27Zm8.82-7.32a7,7,0,0,0-1.27.12,10.23,10.23,0,0,0-1.27.3c-.41.13-.81.27-1.18.42s-.71.31-1,.46V19.1a4.64,4.64,0,0,1-.11,1H134a3.67,3.67,0,0,0,1-.1,1.09,1.09,0,0,0,.59-.37,1.53,1.53,0,0,0,.28-.73,8.12,8.12,0,0,0,.07-1.21,5.78,5.78,0,0,0-.15-1.38,2.48,2.48,0,0,0-.54-1,2.37,2.37,0,0,0-1-.64A5.05,5.05,0,0,0,132.58,14.42ZM140,21.74a1.08,1.08,0,0,1-.63-.15.68.68,0,0,1-.21-.59,1,1,0,0,1,.2-.71,1,1,0,0,1,.64-.19h1.43a1,1,0,0,0,.76-.24,1.22,1.22,0,0,0,.24-.87V13.37a.19.19,0,0,1,.21-.21H144a.18.18,0,0,1,.2.21v5.31a1.24,1.24,0,0,0,.52,1.07,2.42,2.42,0,0,0,1.37.35h.25a1,1,0,0,1,.63.18.75.75,0,0,1,.21.6.9.9,0,0,1-.2.7,1,1,0,0,1-.64.16h-.46a2.41,2.41,0,0,1-1.17-.27,1.88,1.88,0,0,1-.78-.82,2.18,2.18,0,0,1-2.18,1.09Zm1.28-10.65a.19.19,0,0,1-.21-.21V9.35a.19.19,0,0,1,.21-.21h1.43a.19.19,0,0,1,.21.21v1.53a.19.19,0,0,1-.21.21Zm2.56,0a.19.19,0,0,1-.21-.21V9.35a.19.19,0,0,1,.21-.21h1.42a.19.19,0,0,1,.21.21v1.53a.19.19,0,0,1-.21.21Zm2.49,10.65a1.08,1.08,0,0,1-.63-.15.68.68,0,0,1-.21-.59,1,1,0,0,1,.2-.71,1,1,0,0,1,.64-.19h1.32a1.06,1.06,0,0,0,.77-.24,1.22,1.22,0,0,0,.24-.87V7.69a.19.19,0,0,1,.21-.21h1.34a.19.19,0,0,1,.21.21V19.1a3,3,0,0,1-.57,2,2.41,2.41,0,0,1-1.88.64Zm8.79-.21a.19.19,0,0,1-.21.21h-1.35a.19.19,0,0,1-.21-.21V7.69a.19.19,0,0,1,.21-.21h1.35a.19.19,0,0,1,.21.21Z"/><text class="cls-2" transform="translate(0 41.65)">Electronic Attestation</text><rect class="cls-1" x="202.07" y="7.78" width="2.66" height="2.66"/><path class="cls-1" d="M202.09,10.46v2.61h-2.47A11.13,11.13,0,0,0,188.5,24.19v1.24h-2.61V24.19a13.79,13.79,0,0,1,.29-2.83,13.41,13.41,0,0,1,1-3,14.72,14.72,0,0,1,1-1.82c.23-.32.46-.64.71-.95a13.69,13.69,0,0,1,10.69-5.11Z"/><rect class="cls-1" x="202.07" y="13.04" width="2.66" height="2.66"/><path class="cls-1" d="M188.5,16.2V13.73A11.13,11.13,0,0,1,199.62,2.61h2.47V0h-2.47a13.73,13.73,0,0,0-13.73,13.73V16.2Z"/><rect class="cls-1" x="202.07" y="2.62" width="2.66" height="2.66"/><path class="cls-1" d="M185.69,21.36V18.89A11.13,11.13,0,0,0,174.57,7.77H172.1V5.16h2.47A13.73,13.73,0,0,1,188.3,18.89v2.47Z"/><rect class="cls-1" x="169.45" y="7.78" width="2.66" height="2.66"/><path class="cls-1" d="M172.1,10.46v2.61h2.47a11.13,11.13,0,0,1,11.12,11.12v1.24h2.61V24.19a13.79,13.79,0,0,0-.29-2.83,13.43,13.43,0,0,0-1-3,12.53,12.53,0,0,0-1-1.82c-.22-.32-.45-.64-.7-.95a13.7,13.7,0,0,0-10.69-5.11Z"/><rect class="cls-1" x="169.45" y="13.04" width="2.66" height="2.66"/><path class="cls-1" d="M185.69,16.2V13.73A11.13,11.13,0,0,0,174.57,2.61H172.1V0h2.47A13.73,13.73,0,0,1,188.3,13.73V16.2Z"/><rect class="cls-1" x="169.45" y="2.62" width="2.66" height="2.66"/></g></g></svg>